<?xml version="1.0" encoding="utf-8"?>
<!-- Generator: Adobe Illustrator 25.4.1, SVG Export Plug-In . SVG Version: 6.00 Build 0)  -->
<svg version="1.1" id="Layer_1" xmlns="http://www.w3.org/2000/svg" xmlns:xlink="http://www.w3.org/1999/xlink" x="0px" y="0px"
	 viewBox="0 0 1000 1000" style="enable-background:new 0 0 1000 1000;" xml:space="preserve">
<style type="text/css">
	.st0{fill-rule:evenodd;clip-rule:evenodd;fill:#FF9900;}
	.st1{fill-rule:evenodd;clip-rule:evenodd;}
</style>
<g>
	<path class="st0" d="M506,580.6c-34.8,25.7-85.4,39.4-129,39.4c-61.1,0-115.9-22.6-157.7-60.1c-3.2-3-0.4-7,3.6-4.6
		c44.9,26.1,100.3,41.7,157.7,41.7c38.6,0,81.2-8,120.4-24.7C506.8,570.1,511.7,576.4,506,580.6L506,580.6z"/>
	<path class="st0" d="M520.5,564c-4.4-5.7-29.5-2.7-40.7-1.3c-3.4,0.4-4-2.5-0.8-4.6c20-14.1,52.7-9.9,56.5-5.3s-1.1,37.5-19.8,53.1
		c-3,2.3-5.7,1.1-4.4-2.1C515.5,593.3,525,569.9,520.5,564z"/>
	<path class="st1" d="M480.5,459v-13.7c0-2.1,1.5-3.4,3.4-3.4H545c1.9,0,3.6,1.5,3.6,3.4v11.6c0,1.9-1.7,4.4-4.6,8.6l-31.6,45.1
		c11.8-0.2,24.2,1.5,34.8,7.4c2.3,1.3,3,3.4,3.2,5.3v14.5c0,2.1-2.1,4.4-4.4,3.2c-18.8-9.9-43.8-11-64.5,0.2
		c-2.1,1.1-4.4-1.1-4.4-3.2v-13.9c0-2.1,0-5.9,2.3-9.3l36.7-52.5h-31.8C482.2,462.4,480.5,460.9,480.5,459L480.5,459z M257.7,543.9
		h-18.5c-1.7-0.2-3.2-1.5-3.4-3.2v-95.3c0-1.9,1.7-3.4,3.6-3.4h17.3c1.9,0,3.2,1.5,3.4,3.2v12.4h0.4c4.4-12,13.1-17.7,24.5-17.7
		c11.6,0,19,5.7,24,17.7c4.4-12,14.8-17.7,25.7-17.7c7.8,0,16.2,3.2,21.5,10.5c5.9,8,4.6,19.6,4.6,29.9v60.3c0,1.9-1.7,3.4-3.6,3.4
		h-18.3c-1.9-0.2-3.4-1.7-3.4-3.4v-50.6c0-4,0.4-14.1-0.4-17.9c-1.5-6.3-5.5-8.2-11-8.2c-4.4,0-9.3,3-11.2,7.8
		c-1.9,4.8-1.7,12.9-1.7,18.3v50.6c0,1.9-1.7,3.4-3.6,3.4h-18.5c-1.9-0.2-3.4-1.7-3.4-3.4v-50.6c0-10.5,1.7-26.3-11.4-26.3
		c-13.3,0-12.9,15.2-12.9,26.3v50.6C261.3,542.5,259.8,543.9,257.7,543.9L257.7,543.9z M601.3,440c27.6,0,42.6,23.6,42.6,53.8
		c0,29.1-16.4,52.3-42.6,52.3c-27,0-41.7-23.6-41.7-53.1C559.3,463.2,574.3,440,601.3,440L601.3,440z M601.3,459.6
		c-13.7,0-14.5,18.8-14.5,30.4s-0.2,36.5,14.3,36.5c14.3,0,15.2-20,15.2-32.3c0-8-0.4-17.7-2.7-25.3
		C611.4,462.2,607.2,459.6,601.3,459.6L601.3,459.6z M679.5,543.9h-18.5c-1.9-0.2-3.4-1.7-3.4-3.4v-95.5c0.2-1.7,1.7-3.2,3.6-3.2
		h17.3c1.7,0,3,1.3,3.4,2.7v14.5h0.4c5.3-13.1,12.4-19.2,25.3-19.2c8.2,0,16.4,3,21.7,11.2c4.8,7.6,4.8,20.4,4.8,29.7V541
		c-0.2,1.7-1.7,3-3.6,3h-18.5c-1.7-0.2-3.2-1.5-3.4-3v-51.9c0-10.5,1.3-25.7-11.6-25.7c-4.4,0-8.6,3-10.8,7.6
		c-2.5,5.9-3,11.6-3,18.1v51.4C683.1,542.5,681.4,543.9,679.5,543.9L679.5,543.9z M431.8,498.4c0,7.2,0.2,13.3-3.4,19.8
		c-3,5.3-7.6,8.4-12.9,8.4c-7.2,0-11.4-5.5-11.4-13.5c0-15.8,14.1-18.8,27.6-18.8V498.4z M450.6,543.7c-1.3,1.1-3,1.3-4.4,0.4
		c-6.1-5.1-7.4-7.6-10.8-12.4c-10.1,10.3-17.5,13.5-30.6,13.5c-15.6,0-27.8-9.7-27.8-28.9c0-15.2,8.2-25.3,19.8-30.4
		c10.1-4.4,24.2-5.3,35-6.5v-2.3c0-4.4,0.4-9.7-2.3-13.5c-2.3-3.4-6.5-4.8-10.3-4.8c-7.2,0-13.5,3.6-15,11.2
		c-0.4,1.7-1.5,3.4-3.2,3.4l-17.9-1.9c-1.5-0.4-3.2-1.5-2.7-3.8c4.2-21.9,23.8-28.5,41.5-28.5c9.1,0,20.9,2.3,28,9.3
		c9.1,8.4,8.2,19.8,8.2,32v28.9c0,8.6,3.6,12.4,7,17.3c1.3,1.7,1.5,3.8,0,4.8C461.1,534.7,454.4,540.6,450.6,543.7L450.6,543.7z
		 M188.3,498.4c0,7.2,0.2,13.3-3.4,19.8c-3,5.3-7.6,8.4-12.9,8.4c-7.2,0-11.4-5.5-11.4-13.5c0-15.8,14.1-18.8,27.6-18.8V498.4z
		 M206.9,543.7c-1.3,1.1-3,1.3-4.4,0.4c-6.1-5.1-7.4-7.6-10.8-12.4c-10.1,10.3-17.5,13.5-30.6,13.5c-15.6,0-27.8-9.7-27.8-28.9
		c0-15.2,8.2-25.3,19.8-30.4c10.1-4.4,24.2-5.3,35-6.5v-2.3c0-4.4,0.4-9.7-2.3-13.5c-2.3-3.4-6.5-4.8-10.3-4.8
		c-7.2,0-13.5,3.6-15,11.2c-0.4,1.7-1.5,3.4-3.2,3.4l-17.9-1.9c-1.5-0.4-3.2-1.5-2.7-3.8c4.2-21.9,23.8-28.5,41.5-28.5
		c9.1,0,20.9,2.3,28,9.3c9.1,8.4,8.2,19.8,8.2,32v28.9c0,8.6,3.6,12.4,7,17.3c1.3,1.7,1.5,3.8,0,4.8
		C217.4,534.7,210.7,540.6,206.9,543.7L206.9,543.7z"/>
</g>
<g>
	<path d="M759.2,542.4c-1.5,0-2.7-0.5-3.6-1.6c-0.9-1-1.4-2.3-1.4-3.9s0.5-2.9,1.5-3.9c1-1,2.2-1.6,3.7-1.6s2.7,0.5,3.7,1.5
		c1,1,1.4,2.3,1.4,3.9c0,1.6-0.5,2.9-1.4,3.9C762.1,541.9,760.9,542.4,759.2,542.4L759.2,542.4z"/>
	<path d="M778.3,521.9c0.1,2.5,0.5,4.7,1.3,6.6c0.8,1.9,1.8,3.4,3.1,4.5c1.3,1.2,2.8,2,4.5,2.6c1.7,0.5,3.5,0.8,5.4,0.8
		c2.8,0,5.1-0.2,6.8-0.6c1.8-0.4,3.4-0.9,4.8-1.6l1.4,5.5c-1.3,0.6-3.2,1.2-5.5,1.8s-5.2,0.9-8.5,0.9c-3.2,0-6.1-0.5-8.7-1.5
		c-2.5-1-4.7-2.5-6.5-4.3c-1.8-1.9-3.1-4.1-4.1-6.7c-1-2.6-1.4-5.5-1.4-8.6c0-3.2,0.5-6.1,1.4-8.9c0.9-2.7,2.2-5.1,3.9-7.2
		c1.7-2,3.8-3.6,6.2-4.8c2.4-1.2,5.2-1.8,8.2-1.8c3.4,0,6.2,0.7,8.5,2c2.2,1.3,4,3,5.3,5c1.3,2,2.2,4.1,2.7,6.5
		c0.5,2.3,0.8,4.4,0.8,6.3c0,1.5-0.1,2.7-0.3,3.6H778.3z M800.6,516.4c0-1.2-0.1-2.5-0.4-4c-0.3-1.4-0.8-2.8-1.6-4
		c-0.8-1.2-1.9-2.3-3.2-3.1c-1.4-0.8-3.1-1.3-5.2-1.3c-2,0-3.6,0.4-5,1.2c-1.4,0.8-2.6,1.8-3.5,3c-1,1.2-1.7,2.5-2.2,4
		c-0.5,1.4-0.8,2.8-1,4.2H800.6z"/>
	<path d="M853.3,535.3c0,4.9-0.5,8.8-1.5,11.9c-1,3.1-2.5,5.5-4.5,7.4c-2.1,1.8-4.5,3.1-7.3,3.9c-2.8,0.8-5.5,1.1-8.1,1.1
		c-2.5,0-5.1-0.3-7.6-0.9c-2.5-0.6-4.7-1.4-6.3-2.6l1.9-5.9c1.4,0.9,3.1,1.7,5.3,2.4c2.1,0.7,4.5,1,7.1,1c2,0,3.8-0.3,5.4-0.8
		c1.7-0.5,3.1-1.4,4.3-2.6c1.2-1.2,2.2-2.7,2.8-4.6c0.7-1.9,1-4.1,1-6.8v-4.6h-0.2c-1.2,2-2.8,3.6-5.1,5c-2.2,1.4-5,2-8.3,2
		c-2.6,0-5-0.5-7.2-1.6c-2.2-1-4.1-2.5-5.6-4.3c-1.6-1.8-2.8-4-3.7-6.5c-0.9-2.5-1.3-5.2-1.3-8.1c0-3.5,0.5-6.7,1.6-9.4
		c1.1-2.8,2.5-5.1,4.2-7c1.8-1.9,3.8-3.3,6.1-4.3c2.3-1,4.6-1.5,7.1-1.5c1.8,0,3.4,0.2,4.8,0.7c1.4,0.4,2.7,1,3.7,1.7
		c1.1,0.7,2,1.5,2.7,2.3s1.4,1.7,1.8,2.6h0.2l0.3-6.3h6.8c-0.1,1.5-0.2,3.2-0.3,4.9c-0.1,1.8-0.1,4-0.1,6.5V535.3z M845.7,515.9
		c0-0.6,0-1.2-0.1-1.8c-0.1-0.5-0.2-1.1-0.3-1.6c-0.7-2.3-1.9-4.2-3.7-5.8c-1.8-1.6-4.1-2.4-7-2.4c-1.9,0-3.5,0.4-5,1.1
		c-1.5,0.8-2.8,1.8-4,3.2c-1.1,1.4-2,3.1-2.6,5c-0.6,2-0.9,4.2-0.9,6.6c0,2,0.3,4,0.8,5.8c0.5,1.8,1.3,3.4,2.3,4.8
		c1,1.4,2.4,2.5,3.9,3.3s3.4,1.2,5.4,1.2c2.4,0,4.6-0.7,6.5-2.1c1.9-1.4,3.3-3.3,4.1-5.8c0.2-0.6,0.4-1.3,0.5-2
		c0.1-0.7,0.1-1.4,0.1-2.1V515.9z"/>
</g>
</svg>
